<?xml version="1.0" encoding="utf-8"?>
<!-- Generator: Adobe Illustrator 19.2.1, SVG Export Plug-In . SVG Version: 6.00 Build 0)  -->
<svg version="1.1" id="Layer_1" xmlns="http://www.w3.org/2000/svg" xmlns:xlink="http://www.w3.org/1999/xlink" x="0px" y="0px"
	 viewBox="0 0 630 630" style="enable-background:new 0 0 630 630;" xml:space="preserve">
<style type="text/css">
	.st0{fill:#912D2D;}
</style>
<rect x="1" width="630" height="630"/>
<path class="st0" d="M423.2,492.2c12.7,20.7,29.2,36,58.4,36c24.5,0,40.2-12.3,40.2-29.2c0-20.3-16.1-27.5-43.1-39.3l-14.8-6.4
	c-42.7-18.2-71.1-41-71.1-89.2c0-44.4,33.8-78.2,86.7-78.2c37.6,0,64.7,13.1,84.2,47.4l-46.1,29.6c-10.1-18.2-21.1-25.4-38.1-25.4
	c-17.3,0-28.3,11-28.3,25.4c0,17.8,11,25,36.4,36l14.8,6.3c50.3,21.6,78.7,43.6,78.7,93c0,53.3-41.9,82.5-98.1,82.5
	c-55,0-90.5-26.2-107.9-60.5L423.2,492.2z M214.1,497.3c9.3,16.5,17.8,30.5,38.1,30.5c19.5,0,31.7-7.6,31.7-37.2V289.3h59.2v202.1
	c0,61.3-35.9,89.2-88.4,89.2c-47.4,0-74.9-24.5-88.8-54.1L214.1,497.3z"/>
<g>
	<path class="st0" d="M403.2,171c0,4.3,0,8.6,0,13c-0.1,0.5-0.3,0.9-0.3,1.4c-0.6,7.2-1.9,14.3-4.4,21.1
		c-11.9,32.8-34.8,53.3-68.9,61.1c-3.9,0.9-8,1.3-12,1.9c-4.2,0-8.4,0-12.6,0c-0.5-0.1-1.1-0.3-1.6-0.3c-7.8-0.6-15.5-2.1-22.9-4.9
		c-32.9-12.6-53-36.2-60-70.8c-0.7-3.4-1-6.8-1.4-10.2c0-3.8,0-7.7,0-11.5c0.2-1.8,0.5-3.5,0.7-5.3c3.4-25.8,15.4-46.5,35.9-62.4
		c0.5-0.4,1.1-0.5,1.6-0.8c0,0,0,0,0,0c0.2,0.7,0.4,1.4,0.6,2.1c0.5,1.8,1.7,3.8,1.3,5.4c-0.3,1.4-2.5,2.4-3.8,3.5
		c-0.1,0.1-0.3,0.2-0.4,0.4c-24.6,23.4-33,51.7-25.1,84.7c0.3,1.2,0.1,1.9-0.9,2.6c-1.7,1.1-3.2,2.3-4.8,3.5
		c2.1,0.4,4.1,0.5,6.1,0.4c1.1,0,1.7,0.3,2.2,1.5c14,33.2,38.9,51.4,74.9,54.4c0.6,0,1.4,0.7,1.6,1.2c0.8,2,1.4,4,2.3,6.5
		c0.8-2.3,1.5-4.2,2.1-6.1c0.3-1.2,0.9-1.6,2.2-1.7c10.5-0.5,20.5-2.8,30-7.1c21.1-9.7,36-25.3,44.5-47c0.5-1.2,1.1-1.8,2.4-1.7
		c1.9,0.1,3.9,0,6,0c-0.3-0.4-0.3-0.6-0.4-0.6c-1.4-1.1-2.8-2.2-4.3-3.2c-1.2-0.8-1.3-1.5-1-2.9c3.4-12.9,3.8-26,1.1-39
		c-4.2-19.7-14.2-35.8-29.8-48.5c-0.9-0.7-1-1.3-0.7-2.3c0.7-2,1.2-4.1,1.8-6.2l0,0c0.5,0.2,1,0.4,1.4,0.7
		c18.3,14.1,30.1,32.4,34.9,55.1C402.2,162.9,402.6,167,403.2,171z"/>
	<path class="st0" d="M316.9,85.4c3.6,0.5,7.2,0.9,10.8,1.5c13.2,2.4,25.3,7.5,36.3,15.2c0.4,0.3,0.7,0.8,1.1,1.1c0,0,0,0,0,0
		c-1.6,1.1-3.2,2.1-4.7,3.3c-1.3,1.1-2.2,1-3.7,0.1c-21.4-13.4-44.4-16.7-68.8-10.1c-8.6,2.3-16.6,6.2-24.1,11.2
		c-2.2-1.5-4.4-3-6.6-4.5c0,0,0,0,0,0c0.4-0.4,0.7-0.8,1.1-1.1c13.7-9.5,28.8-15,45.4-16.4c0.5,0,1.1-0.2,1.6-0.3
		C309.3,85.4,313.1,85.4,316.9,85.4z"/>
	<path class="st0" d="M311.2,261.1c-3.4-10.3-6.5-20.1-9.7-29.9c-5.7-17.5-11.4-35-17.1-52.5c-0.5-1.7-0.3-2.6,1.2-3.4
		c1.2-0.7,2.3-1.6,3.7-2.6c7.3,22.5,14.6,44.8,21.9,67.4c0.4-1,0.7-1.6,0.9-2.3c3.3-10,6.5-20,9.7-30.1c0.5-1.4,1.1-2,2.6-1.9
		c1.5,0.1,2.9,0,4.8,0C323.1,224.3,317.2,242.4,311.2,261.1z"/>
	<path class="st0" d="M360.4,109.7c-2.9,9-5.7,17.5-8.4,26c-6.1,18.9-12.3,37.7-18.4,56.6c-0.5,1.5-1.1,2.1-2.7,2
		c-1.5-0.1-2.9,0-4.7,0c7.3-22.5,14.5-44.8,21.9-67.6c-0.9,0.7-1.5,1-2,1.4c-8.6,6.3-17.3,12.5-25.9,18.8c-1,0.7-1.7,0.9-2.7,0
		c-1.3-1.1-2.7-2-4.1-3.1C329.1,132.4,344.5,121.2,360.4,109.7z"/>
	<path class="st0" d="M262,109.7c3,2.2,5.6,4.1,8.3,6c20.7,15,41.3,30,62,45c1.3,0.9,1.6,1.7,1,3.2c-0.6,1.3-0.9,2.8-1.5,4.5
		c-19.1-13.9-38-27.6-57.5-41.7c0.3,1,0.5,1.5,0.6,2.1c3.3,10.2,6.6,20.4,10,30.6c0.4,1.3,0.3,2-0.9,2.7c-1.4,0.8-2.6,1.8-4.1,2.9
		C273.9,146.5,268,128.3,262,109.7z"/>
	<path class="st0" d="M252.1,196.8c0.7,0,1.3,0,2,0c10.4,0,20.9,0.1,31.3-0.1c1.8,0,2.5,0.6,2.9,2.2c0.3,1.4,0.8,2.7,1.3,4.2
		c-19.2,0-38.2,0-57.8,0c24.1-17.5,47.9-34.8,71.7-52.1c1.8,1.3,3.5,2.6,5.5,4c-19.1,13.9-38,27.6-57,41.4
		C252,196.6,252,196.7,252.1,196.8z"/>
	<path class="st0" d="M299.9,196.8c23.7,0,47,0,70.9,0c-0.9-0.7-1.3-1-1.8-1.4c-8.6-6.3-17.3-12.6-25.9-18.8c-1-0.7-1.4-1.3-0.9-2.6
		c0.6-1.5,1-3,1.6-4.9c15.6,11.3,31,22.5,46.4,33.7c0,0.1-0.1,0.2-0.1,0.4c-0.6,0-1.2,0-1.8,0c-28.1,0-56.3,0-84.4,0
		c-1.6,0-2.3-0.4-2.7-2C301,199.9,300.4,198.5,299.9,196.8z"/>
</g>
</svg>
